<svg id="Layer_1" data-name="Layer 1" xmlns="http://www.w3.org/2000/svg" viewBox="0 0 299.01 215.04"><path d="M192.42,1.63l-3.58,4.1C232.36,19,252.58,38.24,252.58,38.24,191.77,4.91,120.34,4.9,61.35,30.82c-9.47,4.35-15.1,7.42-15.1,7.42S67.5,18,113.58,4.7L111,1.63S75.94.86,39.08,28.51c0,0-36.86,66.82-36.86,149.25,0,0,21.5,37.12,78.08,38.91,0,0,9.47-11.52,17.15-21.25-32.51-9.72-44.8-30.2-44.8-30.2,3.76,2.63,10,6.05,10.49,6.4,43.21,24.19,104.59,32.12,159.75,9a146.86,146.86,0,0,0,29.44-15.11s-12.8,21-46.34,30.47c7.68,9.72,16.9,20.73,16.9,20.73,56.57-1.79,78.33-38.91,78.33-38.91,0-82.43-36.86-149.25-36.86-149.25C227.5.86,192.42,1.63,192.42,1.63ZM103.85,154c-14.34,0-26.11-12.8-26.11-28.41s11.52-28.42,26.11-28.42,26.37,12.8,26.11,28.42C130,141.15,118.44,154,103.85,154Zm93.44,0c-14.34,0-26.11-12.8-26.11-28.41s11.52-28.42,26.11-28.42,26.11,12.8,26.11,28.42S211.88,154,197.29,154Z" transform="translate(-2.22 -1.63)" style="fill:#ceb5fd"/></svg>